<svg version="1" xmlns="http://www.w3.org/2000/svg" width="784" height="784" viewBox="0 0 588.000000 588.000000"><path d="M271.4 196c-7.3 1.5-22.6 7-29.8 10.8-14 7.3-33.5 23.9-44.2 37.6l-3.1 3.9-3.8-4.4c-7-8.1-21.7-22-22.8-21.6-.6.2-3.1-1.1-5.5-3-32-24.4-77-28.5-111.9-10.2-7.8 4.1-8.5 4.9-6.8 7.2 1.3 1.8 1.6 1.7 7.7-1.6 8.5-4.7 23-9.5 33-10.8 7.6-1.1 26-.7 31.8.5 13.7 3 23.9 7 35.3 13.7 11.2 6.7 41.7 38.6 41.7 43.7 0 3.2-2.5 1.4-7.6-5.3-14.6-19.5-33.3-34.5-51.8-41.6-10.1-3.9-22.4-6.5-30.1-6.5-5.2.1-6 .3-5.7 1.9.4 2.1-.6 2.4-8.8 3-32 2.3-62.1 25.7-71.8 55.7-3.1 9.7-3.6 13-2 13 1 0 1.3 2.6 1.3 11.2 0 6.2.3 13.1.7 15.3 2.5 13.9 10.5 29.3 20 38.7 2.5 2.5 2.6 2.7.9 4.2-1.7 1.5-2 1.4-4.6-1.1-11.8-11.8-20.5-30.9-22.1-48.9-.4-4.1-1.1-7.4-1.5-7.4-2.6 0 .1-18.6 4.2-29.6 3.6-9.5 11.2-21.5 17.9-28.2 2.6-2.6 2.8-3.2 1.5-4.2-1.3-1-1.9-.9-3.7.6-3.4 3.1-12.3 15.5-15.3 21.4C9.3 264.3 5 279.6 5 288.3c0 2.3-.7 5-1.4 6-1.3 1.7-1.3 5-.2 13.7.5 3 1.6 7.8 4.2 16.7.5 2 0 2.5-3.5 4l-4.2 1.8 3.9 8c5.8 11.9 18.8 28.5 21.2 27 .6-.4 3.2 1.1 5.8 3.3 13.1 10.8 31.5 19.7 44.8 21.8 2.2.3 5.7.9 7.8 1.4 6.2 1.4 28.2.5 37.1-1.4 14.8-3.2 31.2-10.7 43.3-19.8 3.9-2.9 5.1-4.4 4.7-5.7-.3-1.2.3-2.4 2.1-3.7 3.6-2.7 14.5-14 19-19.7 2-2.6 4-4.7 4.4-4.7.4 0 2.9 2.8 5.6 6.2 16.3 20.9 38.3 36.6 61.5 44.1 10.5 3.4 16.9 4.3 17 2.3.1-.9.2-2.4.3-3.3.1-1.3-1.3-2-5.9-2.9-25.6-5.2-50.1-21.7-69.6-46.7-3.8-4.9-6.9-9.2-6.9-9.5 0-.4.9-1.8 2-3.2 2.3-2.8 1.7-3.1 6.7 3.9 4.3 5.9 9.3 12 14 16.8 3.2 3.2 4.7 5.5 4.2 6-1.4 1.4 11.3 11.4 22 17.6 13.2 7.6 29.5 12.2 45.4 13l5.7.3v-5.4c0-6 0-6-8.5-6.4-4.8-.2-6-.6-6.3-2.1-.3-1.6.4-1.8 8.2-1.4 6.6.3 8.6 0 9.1-1.1 1.2-3.2-1.1-4.6-8.3-4.9-26.8-1.1-53.4-18.2-73.3-47-2.2-3.1-2.7-4.7-2.1-6.4.8-2 1.3-1.6 5.7 4.7 7.1 9.9 21.8 24.2 31 30.2 4.4 2.9 11.3 6.5 15.5 8.1 7.7 3 22.6 5.8 25.2 4.8 1.3-.4 1.6-2.6.9-6.8-.1-.4-2.1-.7-4.6-.7-5.2-.1-14.5-2.4-21-5.2-13.6-5.8-32.9-22.9-42.9-37.9l-4.9-7.4 1.8-3.3c3.3-6.2 15-20.9 21.7-27.3 11-10.4 21.9-17.1 33.8-20.7 6.2-1.8 20.2-2.5 26.4-1.3 25.7 5.2 43.7 25.4 43.9 49.4 0 3.8-.3 8.2-.6 9.7-.7 2.5-.4 2.8 3.5 3.8 2.4.6 5.1 1.3 6 1.6 1.1.3 1.9-.3 2.4-1.8 1.2-3.9 1.2-19 0-25-1-4.7-1-5.8.1-6.2.8-.3 1.6 0 1.8.7 1.9 5.7 2.4 10.6 2.2 19.8-.3 10.5-.3 10.7 2 11.2 1.3.2 2.3.1 2.4-.2 0-.3.2-1.5.4-2.6s.5-3.9.6-6.3c.3-4.2.3-4.2 4.1-4.2h3.7l-.4-5.8c-2.3-27.8-20.8-54.2-45.8-65.2-4.5-2-4.6-2.1-3.5-5.1.6-1.7.7-3.4.2-3.8-2.9-2.3-20.5-6-29.4-6.1-3 0-3.5-.3-3.6-2.6-.2-2.5-.1-2.5 6-2.3 8.5.3 21.7 3.3 31 7.1 11.6 4.6 29.6 16.9 29.6 20.1 0 .5 1.1 2.1 2.5 3.5 5.6 6.2 7.8 9 11.4 15.2 8.8 14.8 12.3 27.8 12.5 46l.1 7.5h7.9v-6c0-19.4-4.1-35.3-13-50.5-5.3-9.3-15.1-21-17.4-21-.6 0-2.3-1.2-3.8-2.6-4.5-4.3-19.1-13.5-26.1-16.5-16-6.7-33.3-9.4-50.3-7.7-5.2.5-5.8.4-5.8-1.3 0-2.1-.4-2.1-6.6-.9zm-162.9 29.5c8.6.9 14.5 2.8 13.6 4.4-.7 1.1-2 1.1-8-.3-15.5-3.5-34.7-1.5-47.3 5-2.5 1.3-3.2 1.4-3.9.2-1.2-1.9.8-3.1 10.3-6.2 12.5-4 20.5-4.7 35.3-3.1zm194.5 3.4c2.6 1.7.4 2.2-10.1 2.3-5.7 0-11 .3-11.7.6-.8.3-1 1.5-.6 3.6.4 2.4.2 3.3-.8 3.3-2.7.1-10.4 2.5-14.9 4.8-3.5 1.7-5 2-5.8 1.2-.8-.8-2-.6-4.3.7-3.1 1.9-3.1 1.9-5-.4-1.8-2.2-1.8-2.3-.1-3.5 7.8-5.3 21.9-11.2 29.3-12.2 1.9-.3 3.6-.6 3.8-.8.8-.8 18.9-.4 20.2.4zm-161.2 12.8c12.3 8 29.6 27.5 39 43.8 4.5 7.9 4.9 9.1 3.8 12.2-.9 2.9-2.3 2.9-3.1.2-1.1-3.5-7.4-13.9-13.4-21.9-7.4-10.1-21.2-23.8-28.8-28.4-6.2-3.8-6.9-4.8-5.7-8 .9-2.3 1.9-2 8.2 2.1zm-30.1 1.8c21.9 5.2 44 23.7 59.5 49.7 4.8 8.1 4.9 7.4-4.1 19.4-6.8 9.2-18.3 20.9-24.5 25.1-2.2 1.5-4.3 3.1-4.6 3.4-.3.4-3.7 2.3-7.7 4.3-20 10-41.3 10.7-60.1 2-25.3-11.6-39.9-38.6-34.6-63.8 2-9.7 2-9.7 6-8L45 277l2.9-5.7c7.1-14 21.8-24.9 38.1-28.3 6-1.3 19.2-1 25.7.5zM66 354.5c9 4.5 19.4 6.8 31.7 6.9h11.1l.6 3.6c1.4 8.4 2.2 7.9-12.6 7.6-7.3-.2-14.4-.6-15.7-.9-7.8-2-14-4.2-19.6-6.7l-6.3-2.9 2.6-5c1.5-2.8 2.8-5.1 3-5.1.1 0 2.5 1.1 5.2 2.5z"/><path d="M88.9 263.8c-.1.4-.2 4.9-.3 9.9-.2 5.1-.5 9.5-.8 9.9-.4.3-5.1.6-10.5.7l-9.8.2v9.7c0 11.2-1.6 10.1 12.6 9.8 5.5-.1 7.8.2 8.1 1.2.2.7.3 5.5.3 10.5l-.1 9.3h9.8c5.4 0 9.8-.3 9.9-.8 0-.4.1-5 .2-10.2l.2-9.5 9.9-.2c5.5-.2 10.1-.4 10.3-.6.4-.4.6-8 .4-15.5l-.1-4.3-5.7.1c-3.2.1-7.9.1-10.4.1l-4.6-.1-.1-8.8c0-4.8 0-9.5-.1-10.4-.1-1.4-1.4-1.7-9.6-1.7-5.2 0-9.6.3-9.6.7zM320.5 322.2c-1.3 3.4-8.5 27.1-8.5 27.9 0 .5 1.6.9 3.5.9 3.1 0 3.6-.3 4.2-3 .5-2.8.9-3 4.8-3s4.4.3 5.4 3c.8 2.6 1.5 3 4.5 3 2 0 3.6-.4 3.6-1 0-1-6.4-21.4-8.2-26.3-.9-2.3-1.6-2.7-5-2.7-2.2 0-4.1.5-4.3 1.2zm6.4 15c.1 1.3-.7 1.8-2.5 1.8-1.9 0-2.5-.4-2.1-1.4.3-.8.9-3.2 1.3-5.3l.7-3.8 1.3 3.5c.7 1.9 1.3 4.3 1.3 5.2zM343.2 336.1v15l3.6-.3c3.6-.3 3.7-.4 3.7-4.5 0-6.9 2.8-6.6 6.4.4 2 4 2.4 4.3 6.1 4.3 2.2 0 4-.2 4-.5s-1.1-2.7-2.4-5.2l-2.5-4.5 2.1-2.8c2.5-3.5 2.9-8.7.9-12.3-1.9-3.3-6.2-4.7-15.2-4.7h-6.7v15.1zm14.5-7.8c1.1.7 1.1 5.2.1 6.3-.8.8-4.8 1.3-6.1.8-.7-.2-1.2-1.7-1.1-3.2.1-1.5.3-3.3.3-4 .1-1.5 4.7-1.4 6.8.1zM372.8 322.2c-.3 1.1-.3 21.8.1 27 .1 1.5 1.1 1.8 6.6 1.8 11.8 0 16.6-3.6 17.3-12.9.6-8.6-1-12.5-6.2-15-4.9-2.4-17.1-3-17.8-.9zm14 6.4c1.8 1.3 2.2 2.5 2.2 7.1 0 6.6-1.8 9.3-6.2 9.3H380v-9c0-8.7.1-9 2.3-9 1.2 0 3.3.7 4.5 1.6zM402.7 321.7c-.2.5-.3 5.8-.2 12 .3 14.6 1.7 17.1 10.5 17.5 5.5.2 7.3-.3 10.1-3.1 2.9-2.9 2.9-3 2.9-15V321h-7v10.7c0 6-.4 11.3-.8 11.9-1.2 1.9-5.1 2.3-6.7.7-1.1-1.1-1.5-4-1.5-12.4V321h-3.4c-1.9 0-3.7.3-3.9.7zM432.8 323.4c-.7 3.4.1 4.1 4.2 4.1h3.5v7.5c.1 9.6-.1 10-4.1 10-3.1 0-3.4.3-3.4 3v3h22.5l.1-3c.2-2.8 0-3-3.7-3-4.2 0-4.1.3-4.1-8.5 0-10-.2-9.5 4.2-9.5 3.6 0 3.9-.2 3.6-2.3-.3-1.2-.5-2.5-.5-3-.1-.4-5-.7-11-.7-10.7 0-10.9 0-11.3 2.4zM461.8 321.7c-.2.5-.3 7.1-.3 14.8l.1 14h6.9v-8.7c0-4.7.3-8.4.7-8.2.4.3 2.6 4.3 5 8.9 4.2 8.4 4.3 8.5 8 8.5 2.4 0 3.8-.5 3.9-1.3 0-2 .1-21.9 0-25.5-.1-2.9-.4-3.2-3.4-3.2h-3.4v7c-.1 3.8-.2 7.8-.2 8.7-.1 1-2.2-2.1-4.8-7-4.6-8.6-4.7-8.7-8.4-8.7-2.1 0-3.9.3-4.1.7zM497.4 322.2c-4 1.9-6.3 7.7-6 14.9.3 10.2 4.1 14.3 12.9 14.1 7.7-.2 12.1-5.8 11.9-15.4-.1-6.8-2.3-12.1-5.8-13.7-3-1.3-10.1-1.3-13 .1zm10.2 7c1.1 2.5 1.1 11.5.1 14.2-.7 1.9-5.7 2.2-7.5.4-1.5-1.5-1.6-12.2-.2-14.9 1.5-2.8 6.4-2.6 7.6.3zM537 336v15h3c2.9 0 3-.1 3-5v-5h5.1c4.3 0 5.5-.5 8-2.9 2.8-2.8 3.3-4.3 3-8.6-.5-6.3-4.2-8.5-14.6-8.5H537v15zm14.4-8.4c1.9 1.8 2.1 5.5.4 7.2-.7.7-2.9 1.2-5 1.2H543v-10h3.4c1.9 0 4.2.7 5 1.6zM564.9 323.9c-.1 3.3-.1 25.2 0 26.8.1.8 1 1.1 2.4.9 1.2-.3 2.5-.5 3-.5.4-.1.7-2.3.7-5.1 0-4.6.2-5 2.3-4.7 1.4.3 3.1 2 4.9 5.3 2.4 4.3 3 4.8 6.2 4.9 2 .1 3.6.1 3.6 0s-1.3-2.6-3-5.6l-2.9-5.4 2.1-2.2c1.1-1.2 2.2-4.1 2.5-6.6.5-3.9.2-4.6-2.7-7-1.7-1.5-4.4-2.7-5.8-2.8-1.5 0-5.1-.2-7.9-.3-5.1-.3-5.3-.2-5.4 2.3zm13.8 3.9c1.5.9 1.9 3.2.9 5.9-.6 1.9-1.5 2.3-4.7 2.3H571v-4.5c0-4.4.1-4.5 3.3-4.5 1.7 0 3.7.4 4.4.8zM522.2 333.8c-.7.2-1.2 1-1.2 1.8 0 1.3 1 1.6 6.5 1.6 4.9 0 5.5-.2 5.5-2 0-1.4-.9-1.7-4.8-1.8-2.6 0-5.3.1-6 .4z"/></svg>